<?xml version="1.0" encoding="utf-8"?>
<!-- Generator: Adobe Illustrator 22.1.0, SVG Export Plug-In . SVG Version: 6.00 Build 0)  -->
<svg version="1.1" id="Layer_1" xmlns="http://www.w3.org/2000/svg" xmlns:xlink="http://www.w3.org/1999/xlink" x="0px" y="0px"
	 viewBox="0 0 91 56" style="enable-background:new 0 0 91 56;" xml:space="preserve">
<style type="text/css">
	.st0{fill:#2D2A2B;}
	.st1{fill:#FFFFFF;}
</style>
<g>
	<rect y="0" class="st0" width="91" height="56"/>
</g>
<path class="st1" d="M7.9,52.2c-0.5,0-0.8-0.1-1.1-0.4l0.4-0.4c0.2,0.2,0.4,0.3,0.8,0.3c0.7,0,1-0.4,1-1.1v-3.4h0.5v3.5
	C9.5,51.6,8.8,52.2,7.9,52.2z M10.9,52.2v-5H14v0.5h-2.6v1.8h2.2v0.5h-2.2v1.8H14v0.5H10.9z M18.1,52.2L17.7,51h-2.2l-0.4,1.1h-0.6
	l1.8-5h0.4l1.8,5H18.1z M16.6,47.9l-0.9,2.6h1.9L16.6,47.9z M22.7,52.2l-2.6-4v4h-0.5v-5H20l2.6,4v-4h0.5v5H22.7z M24.5,49.9v-0.5
	h1.9v0.5H24.5z M29.6,52.2h-1.9v-5h1.9c0.9,0,1.5,0.5,1.5,1.3c0,0.5-0.3,0.9-0.7,1.1c0.5,0.2,0.8,0.6,0.8,1.2
	C31.1,51.7,30.5,52.2,29.6,52.2z M29.5,47.6h-1.3v1.7h1.3c0.6,0,1-0.3,1-0.9S30.1,47.6,29.5,47.6z M29.6,49.9h-1.4v1.8h1.4
	c0.6,0,1-0.4,1-0.9S30.2,49.9,29.6,49.9z M32.4,52.2v-5h3.1v0.5H33v1.8h2.2v0.5H33v1.8h2.6v0.5H32.4z M39.6,52.2l-1.1-2.2h-1.2v2.2
	h-0.5v-5h1.9c0.9,0,1.5,0.5,1.5,1.4c0,0.7-0.4,1.2-1.1,1.3l1.2,2.3H39.6z M38.6,47.6h-1.3v1.8h1.3c0.6,0,1-0.3,1-0.9
	S39.2,47.6,38.6,47.6z M44.6,52.2l-2.6-4v4h-0.5v-5h0.5l2.6,4v-4h0.5v5H44.6z M49.5,52.2L49.1,51h-2.2l-0.4,1.1h-0.6l1.8-5h0.4
	l1.8,5H49.5z M48,47.9l-0.9,2.6h1.9L48,47.9z M53.8,52.2l-1.1-2.2h-1.2v2.2h-0.5v-5h1.9c0.9,0,1.5,0.5,1.5,1.4
	c0,0.7-0.4,1.2-1.1,1.3l1.2,2.3H53.8z M52.8,47.6h-1.3v1.8h1.3c0.6,0,1-0.3,1-0.9S53.4,47.6,52.8,47.6z M58.6,51.6
	c-0.3,0.4-0.7,0.5-1.3,0.5h-1.7v-5h1.7c0.6,0,1,0.2,1.3,0.5c0.4,0.5,0.4,1.2,0.4,2S59,51.2,58.6,51.6z M58.2,48
	c-0.3-0.3-0.6-0.4-1-0.4h-1.1v4h1.1c0.4,0,0.7-0.1,1-0.4c0.3-0.3,0.3-1,0.3-1.7S58.5,48.4,58.2,48z M65,52.2L64.6,51h-2.2L62,52.2
	h-0.6l1.8-5h0.4l1.8,5H65z M63.5,47.9l-0.9,2.6h1.9L63.5,47.9z M69.6,52.2l-2.6-4v4h-0.5v-5H67l2.6,4v-4h0.5v5H69.6z M74.7,51.6
	c-0.3,0.4-0.7,0.5-1.3,0.5h-1.7v-5h1.7c0.6,0,1,0.2,1.3,0.5c0.4,0.5,0.4,1.2,0.4,2S75.1,51.2,74.7,51.6z M74.2,48
	c-0.3-0.3-0.6-0.4-1-0.4h-1.1v4h1.1c0.4,0,0.7-0.1,1-0.4c0.3-0.3,0.3-1,0.3-1.7S74.6,48.4,74.2,48z M79.3,52.2l-1.1-2.2H77v2.2h-0.5
	v-5h1.9c0.9,0,1.5,0.5,1.5,1.4c0,0.7-0.4,1.2-1.1,1.3l1.2,2.3H79.3z M78.3,47.6H77v1.8h1.3c0.6,0,1-0.3,1-0.9S78.9,47.6,78.3,47.6z
	 M81.1,52.2v-5h3.1v0.5h-2.6v1.8h2.2v0.5h-2.2v1.8h2.6v0.5H81.1z M82.7,46.7h-0.5l0.6-1.1h0.6L82.7,46.7z"/>
<path class="st1" d="M47.2,10.2c0.5,0,1.1-0.3,1.1-1.5c0-1.2-0.7-1.4-1.3-1.4c-0.3,0-0.6,0.2-0.8,0.5c-0.3,0.3-0.4,0.6-0.4,0.9
	c0,0.4,0.1,0.8,0.4,1.1C46.5,10.1,46.8,10.2,47.2,10.2"/>
<path class="st1" d="M39.7,32.6c0.8-0.4,1.5-0.7,2.1-1c0.5-0.2,1-0.4,1.3-0.5l0.1,6.7v0.1c0,1.3-0.4,2.3-1.1,3.1
	c-0.7,0.8-1.7,1.2-2.9,1.2c-1.2,0-2.4-0.4-3.6-1.1c-1.3-0.8-1.9-1.8-1.9-2.9C33.8,36.6,35.7,34.6,39.7,32.6 M55.2,22.2
	c0,2.4-0.3,4.9-0.9,7.4c-0.6,2.2-1,2.4-1.1,2.4c-0.1,0-0.2,0-0.4-0.4l0,0c-0.2-0.5-0.6-1-1-1.4c0-1.3,0.4-3.4,1.1-6.3
	c0.4-1.7,0.8-2.9,1.1-3.7c0.4-1,0.7-1.1,0.8-1.1c0,0,0.1,0.1,0.2,0.8C55.2,20.4,55.2,21.2,55.2,22.2 M54.6,16.6
	c-0.9,0-1.7,0.6-2.3,1.8c0.1-1,0.3-2.1,0.4-3.4c0.3-1.9,0.6-4.1,1-6.5c0.1-0.3,0.1-0.7,0.2-1.2c0-0.2,0.1-0.4,0.1-0.7l0.2-0.8
	c0.2-0.8,0.3-1.4,0.3-1.8c0-1.5-0.9-1.8-1.7-1.8h-0.2c-0.7,0-1.2,0.3-1.5,1l0,0.1l0.1,0.1c0,0,0,0.2,0,0.5c0,0.2,0,0.4,0,0.6
	c0,0.2,0,0.5-0.1,0.7l-1.2,10c-0.5,4.3-0.8,8.6-0.8,13c-0.4-0.1-0.7-0.1-1.1-0.1l-1.5,0.1c-0.1,0-0.2,0-0.4,0c-0.1,0-0.3,0-0.5,0
	c0-0.1,0-0.3,0-0.6v-1.3c0-1.2,0-2.3,0.1-3.5c0-1.1,0.1-2.3,0.3-3.4c0.3-2.9,0.7-5.1,1.3-6.4l0,0v0c0-0.6-0.3-1.4-1.6-1.4
	c-0.5,0-1.3,0.2-2.4,0.5l-0.2,0.1l0.3,0.9c0,0.1,0,0.3,0.1,0.5v0.1c0,0.5,0,1.3-0.1,2.2c-0.1,0.9-0.2,2.1-0.3,3.4
	c-0.2,2.2-0.2,4.1-0.1,5.7l0.1,3.4c-4.8,1.3-8.1,3-9.8,5.2l0,0c-0.3,0.3-0.5,0.6-0.7,0.9c-0.2,0.3-0.4,0.5-0.5,0.7l0,0
	c-0.6,0.8-0.8,1.6-0.8,2.5c0,2,1,3.7,2.9,5.1c1.7,1.2,3.5,1.8,5.6,1.8c1.9,0,3.4-0.8,4.7-2.3c1.2-1.5,1.8-3.1,1.7-4.8l-0.3-7.1h0.1
	l0,0l0.2,0l0,0c0.8-0.1,1.1-0.1,1.2-0.1c0.7,0,1.3,0.1,1.7,0.4v0L49,31.3v0c0,0.5,0.2,1,0.5,1.5c0.3,0.5,0.7,0.7,1.1,0.7
	c0.3,0,0.5-0.1,0.8-0.4c0.6,1.1,1.3,1.7,2.1,1.7c1.6,0,2.8-2,3.6-6c0.3-1.4,0.5-2.7,0.6-3.9c0.1-1.2,0.2-2.4,0.2-3.5
	C57.8,18.2,56.7,16.6,54.6,16.6"/>
<path class="st1" d="M62.5,24.7c-0.4,0-0.8,0.2-1.1,0.6c-0.3,0.4-0.5,0.8-0.5,1.2c0,0.7,0.3,1.5,1.6,1.5c0.7,0,1.6-0.3,1.6-1.8
	C64.1,25.4,63.8,24.7,62.5,24.7"/>
</svg>
